<svg width="228" height="52" viewBox="0 0 228 52" fill="none" xmlns="http://www.w3.org/2000/svg">
<path fill-rule="evenodd" clip-rule="evenodd" d="M2.31813 17.0075L4.6375 17.7686C5.51125 18.0396 11.4226 20.007 11.7386 20.0084C11.9495 19.6421 12.2225 18.9283 12.5738 18.3305C12.882 17.805 13.2169 17.3134 13.5774 16.802C13.962 16.2569 14.8561 15.2281 15.3679 14.779C15.4804 14.6801 15.9484 14.2704 16.0287 14.1465C15.9565 13.9425 14.8059 12.4382 14.5967 12.1566C14.1238 11.5199 13.6294 10.8418 13.1559 10.1804L10.242 6.22433C9.88988 6.32583 8.02861 8.14831 7.77399 8.40066C6.34482 9.81504 4.80117 11.9627 3.7834 13.7706C3.53568 14.2109 2.30628 16.5962 2.31813 17.0075Z" fill="#00FFFF"/>
<path fill-rule="evenodd" clip-rule="evenodd" d="M2.73625 19.7011L1.51428 19.3462C1.29982 19.7804 0.959916 21.8453 0.866844 22.4233C0.334423 25.7254 0.686716 29.5566 1.50295 32.652C1.80871 32.6296 8.71586 30.3887 9.72019 30.0496C10.079 29.9283 10.5716 29.8046 10.9199 29.6628C10.9599 29.5153 10.7137 28.2201 10.6693 27.9145C10.5092 26.8099 10.4888 25.2368 10.6585 24.143L10.9551 22.3844L10.7148 22.2639C10.6047 22.2276 10.5295 22.2086 10.4159 22.1709L2.73625 19.7011Z" fill="#00FFFF"/>
<path fill-rule="evenodd" clip-rule="evenodd" d="M2.3061 35.0116C2.37918 35.5459 3.438 37.6137 3.77154 38.2021C4.58654 39.6371 5.54274 41.0751 6.63041 42.3316C7.36773 43.183 8.14027 43.9661 8.922 44.7031C9.27766 45.0384 9.75363 45.4587 10.1925 45.7647C10.3669 45.6714 10.7898 45.0328 10.9393 44.8277C12.0183 43.3486 13.4928 41.2692 14.5672 39.8846C14.8285 39.5478 15.0464 39.2288 15.3033 38.8865C15.4445 38.6986 15.5248 38.5831 15.6639 38.3997C15.7539 38.2808 15.9475 38.0318 16.0289 37.8725C15.9419 37.6771 15.5646 37.4077 15.4025 37.2579C14.3641 36.2989 13.2989 34.9169 12.5868 33.6818C12.2445 33.0871 11.9189 32.2903 11.7386 31.9788C11.5011 31.9779 7.5852 33.2864 7.02853 33.4605C6.45471 33.6401 2.48517 34.8688 2.3061 35.0116Z" fill="#00FFFF"/>
<path fill-rule="evenodd" clip-rule="evenodd" d="M12.2436 47.2443C15.2091 49.2274 17.8281 50.1003 21.2668 50.8982C22.2481 51.1259 24.0091 51.3614 25.0672 51.3493C25.0672 50.2514 25.144 41.8136 25.0219 41.5098C23.6389 41.3999 22.395 41.1446 21.2003 40.7389C20.6165 40.5405 20.0899 40.3243 19.5764 40.09C19.0339 39.8427 18.5773 39.5389 18.0723 39.2971C17.8482 39.4626 17.5117 40.0146 17.3372 40.2508C17.0568 40.6313 16.8439 40.9207 16.6015 41.2501C16.1505 41.8633 15.6096 42.585 15.1341 43.2516C14.8 43.7201 12.2949 47.032 12.2436 47.2443Z" fill="#00FFFF"/>
<path fill-rule="evenodd" clip-rule="evenodd" d="M27.5316 51.3549C28.2357 51.4045 30.5147 51.07 31.2559 50.9111C32.4591 50.6532 33.5095 50.39 34.6003 50.026C35.8933 49.5946 39.2791 48.1197 40.3205 47.2445C40.2821 47.0399 39.1232 45.5455 38.8997 45.2386L34.5301 39.3032L32.9498 40.1133C32.4388 40.346 31.8179 40.5951 31.2473 40.7844C30.2067 41.13 29.3809 41.2898 28.3019 41.4352C27.4127 41.555 27.5081 41.4062 27.5129 41.8642C27.5207 42.6531 27.4621 50.9031 27.5316 51.3549Z" fill="#00FFFF"/>
<path fill-rule="evenodd" clip-rule="evenodd" d="M36.5386 37.823C36.5998 38.0386 37.6802 39.4372 37.95 39.8158C38.4304 40.489 38.8958 41.0922 39.4213 41.8122C39.7869 42.3127 42.1746 45.6299 42.36 45.7664C42.7942 45.5525 44.4665 43.9443 44.8282 43.5685C46.3102 42.0273 47.7932 40.0592 48.8099 38.1865C49.0231 37.7938 50.2823 35.3716 50.2676 34.9817L40.8675 31.9562C40.5607 32.3524 39.7214 34.9328 37.2032 37.2109C36.9933 37.4006 36.8091 37.6116 36.5386 37.823Z" fill="#00FFFF"/>
<path fill-rule="evenodd" clip-rule="evenodd" d="M41.6165 22.3452C41.6726 23.165 42.0282 23.9983 42.0282 25.7384C42.0282 26.77 41.9783 27.0568 41.8978 28.0591C41.869 28.4173 41.6006 29.4308 41.6405 29.6537C42.3849 29.9342 43.1752 30.1448 43.9725 30.4099L51.0585 32.6655C51.782 29.7206 51.9629 28.4836 51.9629 25.4423C51.9629 23.4675 51.5483 21.0742 51.0674 19.3418C50.4826 19.4075 42.9177 21.9993 41.6165 22.3452Z" fill="#00FFFF"/>
<path fill-rule="evenodd" clip-rule="evenodd" d="M36.5327 14.1467C36.6998 14.3445 37.4362 14.9557 37.8186 15.3833C38.7295 16.4011 39.3182 17.1459 39.9895 18.3202L40.8641 20.0186L50.2736 17.0157C50.2428 16.5526 49.0746 14.2797 48.8184 13.8203C48.2787 12.8527 47.6382 11.8619 46.9782 10.9611C46.1393 9.81609 44.7096 8.21201 43.6496 7.29587C43.2836 6.97946 42.7659 6.46373 42.3602 6.21838C42.1884 6.35435 39.626 9.91041 39.436 10.1685C39.0154 10.7399 38.4818 11.4329 37.987 12.1363L36.5327 14.1467Z" fill="#00FFFF"/>
<path fill-rule="evenodd" clip-rule="evenodd" d="M27.5159 10.4631C28.209 10.5786 28.8775 10.6117 29.5249 10.758C32.5388 11.4385 34.3268 12.6392 34.5301 12.6818L39.6046 5.80082C39.7616 5.58259 40.2556 4.97848 40.3285 4.77495C40.2126 4.64265 39.8874 4.46467 39.702 4.34917C39.4748 4.20794 39.2584 4.08194 39.0444 3.96067C38.5877 3.70184 38.1049 3.45421 37.643 3.22163C35.703 2.24529 33.5093 1.54195 31.3343 1.09517C30.4779 0.91929 28.367 0.57891 27.5258 0.649611L27.5159 10.4631Z" fill="#00FFFF"/>
<path fill-rule="evenodd" clip-rule="evenodd" d="M12.2393 4.77478L16.5633 10.7042C16.7917 11.0052 17.8882 12.5614 18.0723 12.6868L19.5943 11.8974C20.1046 11.6573 20.6804 11.4361 21.221 11.2464C22.7678 10.7032 24.7798 10.5493 25.0498 10.4473L25.0673 0.666936C23.0833 0.568934 19.7844 1.35925 17.9024 1.99171C16.7326 2.38476 12.8358 4.07232 12.2393 4.77478Z" fill="#00FFFF"/>
<path d="M21.7107 26.4272C22.3679 26.6272 22.9529 26.9843 23.6679 26.9629C24.0579 26.9558 24.4479 27.0772 24.8307 27.1701C25.0041 27.2129 25.1341 27.1915 25.2857 27.1058C26.0874 26.6272 26.9324 26.2343 27.8858 26.1986C28.2975 26.1843 28.7236 26.2843 29.1353 26.3629C29.4025 26.4129 29.6697 26.4772 29.9153 26.5843C30.5148 26.8558 31.0709 26.7058 31.6487 26.4629C31.6342 26.4057 31.6126 26.3486 31.5909 26.2914C31.4176 25.8057 31.5692 25.3343 32.0098 25.0557C32.537 24.7271 33.0643 24.4056 33.5987 24.0913C34.126 23.7842 34.711 23.9199 35.036 24.4414C36.2205 26.3272 37.3977 28.2201 38.5677 30.1131C38.8927 30.6345 38.7483 31.206 38.2283 31.5346C37.7083 31.8631 37.1883 32.1774 36.661 32.4846C36.2277 32.7418 35.8016 32.6918 35.4549 32.4275C35.0649 32.6989 34.7038 32.9489 34.3137 33.2204C34.3571 34.0275 34.0682 34.4133 33.252 34.5704C33.0209 35.599 32.7176 35.8848 31.7498 36.0134C31.5331 37.042 31.1576 37.4063 30.262 37.5134C30.0814 37.8134 29.9731 38.1135 29.7709 38.3278C29.2797 38.8206 28.4275 38.8706 27.7847 38.4778C27.5825 38.3563 27.4019 38.2135 27.2069 38.0777C27.048 37.9634 26.8891 37.8492 26.7086 37.7206C26.3908 38.1135 25.9863 38.3492 25.4663 38.292C24.968 38.242 24.5996 37.9706 24.3541 37.5134C23.9785 37.742 23.5885 37.8349 23.1696 37.6992C22.7435 37.5634 22.4762 37.2706 22.3101 36.8491C21.8984 36.9634 21.494 36.9848 21.1112 36.7562C20.7284 36.5277 20.5262 36.1848 20.4612 35.7348C19.7606 35.7991 19.2189 35.5776 18.9372 34.899C18.6628 34.2204 19.0817 33.7204 19.385 33.1918C19.0384 32.7489 18.6989 32.3203 18.345 31.8631C18.2872 31.9489 18.2295 32.0346 18.1644 32.1203C17.8467 32.5632 17.2978 32.7132 16.8283 32.4489C16.2505 32.1203 15.6727 31.7774 15.1166 31.4203C14.6327 31.106 14.546 30.5274 14.871 29.9988C15.9183 28.2987 16.9728 26.6057 18.02 24.9057C18.1428 24.7057 18.2583 24.5056 18.3883 24.3128C18.6989 23.8556 19.2623 23.7056 19.7462 23.9842C20.3095 24.3056 20.8656 24.6414 21.4073 24.9842C21.884 25.3057 21.9923 25.7986 21.7107 26.4272ZM27.0263 37.1563C27.3875 37.4134 27.7197 37.6706 28.0591 37.8992C28.3986 38.1277 28.7597 38.1635 29.1425 37.992C29.5614 37.7992 29.5975 37.492 29.2364 37.2206C28.9331 36.992 28.6225 36.7777 28.3191 36.5562C28.1458 36.4348 28.0519 36.2848 28.1819 36.0776C28.2903 35.9062 28.4925 35.8919 28.7019 36.0348C28.9981 36.2419 29.2725 36.4777 29.5831 36.6562C29.7925 36.7705 30.0453 36.8491 30.2909 36.8563C30.6231 36.8705 30.9698 36.5777 31.0492 36.2991C31.1503 35.9419 30.9048 35.7848 30.6592 35.6205C30.197 35.3062 29.742 34.9847 29.287 34.6633C29.1208 34.5419 29.0414 34.3918 29.1714 34.2061C29.3086 34.0133 29.482 34.0275 29.6697 34.1418C29.7203 34.1776 29.7709 34.2133 29.8286 34.249C30.2692 34.5561 30.717 34.8633 31.1576 35.1705C31.4248 35.3562 31.7209 35.4062 32.0315 35.3133C32.2987 35.2347 32.5154 35.0847 32.5659 34.799C32.6165 34.5133 32.4215 34.3418 32.1976 34.2061C31.6487 33.8704 31.0926 33.5275 30.5436 33.1918C30.3559 33.0775 30.2331 32.9346 30.3559 32.706C30.457 32.5203 30.652 32.4989 30.8975 32.6489C31.3526 32.9275 31.8003 33.2061 32.2554 33.4775C32.472 33.6061 32.6815 33.7561 32.9054 33.8632C33.1798 33.999 33.5337 33.8847 33.6637 33.6489C33.7721 33.4561 33.6854 33.2561 33.3893 33.0561C31.5765 31.8203 29.7636 30.5845 27.9508 29.3416C27.8208 29.2559 27.7341 29.263 27.5897 29.313C27.3586 29.3987 27.0913 29.5059 26.8674 29.4559C26.528 29.3916 26.3402 29.513 26.1308 29.7345C25.7408 30.1559 25.2713 30.4345 24.6718 30.4631C24.1663 30.4845 23.7618 30.3131 23.5162 29.8702C23.2707 29.4202 23.3285 28.9916 23.639 28.5916C23.8774 28.2915 24.1302 28.0058 24.4263 27.6487C23.3357 27.6415 22.3318 27.4415 21.429 26.9486C21.3712 26.9986 21.3495 27.0129 21.3351 27.0343C20.4973 28.3773 19.6667 29.7273 18.8361 31.0774C18.8072 31.1203 18.7784 31.206 18.8 31.2417C19.0961 31.6917 19.4067 32.1274 19.7317 32.606C20.0062 32.1417 20.2156 31.7489 20.4612 31.3774C20.9956 30.5417 22.209 30.5774 22.7073 31.4274C22.7435 31.4846 22.7796 31.5417 22.8157 31.6131C23.1985 31.4346 23.5668 31.3917 23.9568 31.5417C24.3468 31.6989 24.5924 31.9917 24.7368 32.3775C25.2713 32.206 25.7407 32.256 26.1524 32.6203C26.5569 32.9846 26.6291 33.4561 26.5352 33.9561C26.5785 33.9704 26.593 33.9847 26.6074 33.9847C27.5536 33.9061 28.3408 35.0204 27.6908 36.0419C27.438 36.4062 27.243 36.7777 27.0263 37.1563ZM32.0676 27.1058C31.497 27.2058 30.9625 27.3986 30.4425 27.3701C29.9081 27.3415 29.3808 27.1058 28.8536 26.9558C28.8175 26.9486 28.7886 26.9272 28.7525 26.9272C28.5142 26.8986 28.2686 26.82 28.0303 26.8486C26.3908 27.0201 25.0618 27.7415 24.094 29.0702C23.8413 29.413 24.0796 29.8345 24.5057 29.8488C24.8668 29.8559 25.1774 29.7345 25.4446 29.4987C25.6541 29.313 25.8563 29.1202 26.0441 28.9201C26.203 28.7487 26.3691 28.6916 26.6002 28.7987C26.8747 28.9273 27.1636 28.8916 27.3947 28.7059C27.6691 28.4844 27.8786 28.5416 28.1386 28.7273C29.9514 29.9773 31.7715 31.2131 33.5915 32.456C33.6782 32.5132 33.7865 32.5846 33.8804 32.5775C34.2704 32.5418 34.6243 32.3917 34.8265 32.0417C34.8915 31.9274 34.9132 31.7131 34.8482 31.606C33.9237 30.0773 32.9848 28.5773 32.0676 27.1058ZM17.3483 31.9846C17.4494 31.8917 17.5939 31.8203 17.6661 31.706C18.8289 29.8416 19.9845 27.9701 21.1401 26.0914C21.299 25.8271 21.2556 25.6557 20.9812 25.4843C20.4973 25.1842 20.0134 24.8914 19.5295 24.6057C19.2261 24.4271 19.06 24.4628 18.8795 24.7628C17.7311 26.62 16.5827 28.4773 15.4344 30.3274C15.2538 30.6202 15.2972 30.7845 15.6005 30.9702C16.0772 31.2631 16.5539 31.5488 17.0305 31.8346C17.11 31.8846 17.2039 31.9203 17.3483 31.9846ZM34.2054 24.5485C34.061 24.5985 33.9743 24.6199 33.8948 24.6628C33.3965 24.9628 32.8909 25.2628 32.3998 25.57C32.1398 25.7343 32.0892 25.92 32.2554 26.1772C33.4109 28.0344 34.5665 29.8988 35.7293 31.756C35.9027 32.0346 36.0832 32.0774 36.3649 31.9132C36.856 31.6203 37.3472 31.3203 37.8383 31.0131C38.1055 30.8488 38.1416 30.6774 37.9827 30.4059C37.7805 30.0702 37.571 29.7345 37.3616 29.4059C36.4227 27.8987 35.4838 26.3843 34.5376 24.8771C34.451 24.7485 34.3137 24.6557 34.2054 24.5485ZM24.1013 32.8489C24.1013 32.4846 23.9207 32.2417 23.6607 32.156C23.3862 32.0632 23.0901 32.1417 22.9168 32.3917C22.6785 32.7489 22.4546 33.1132 22.2451 33.4847C21.8912 34.0918 21.5301 34.699 21.2051 35.3276C21.0101 35.7062 21.1473 36.0776 21.4868 36.2419C21.819 36.3991 22.1801 36.2848 22.3823 35.9348C22.9168 35.0204 23.4512 34.099 23.9785 33.1775C24.0435 33.0418 24.0796 32.9061 24.1013 32.8489ZM22.9096 36.3919C22.9096 36.7634 23.1046 37.0134 23.3935 37.0991C23.6896 37.1848 23.9785 37.0634 24.159 36.7491C24.7007 35.8276 25.2424 34.899 25.7769 33.9704C25.9935 33.5918 25.8996 33.2061 25.5602 33.0203C25.2207 32.8346 24.8524 32.9561 24.6285 33.3346C24.094 34.2418 23.5668 35.1562 23.0396 36.0634C22.9746 36.1919 22.9385 36.3277 22.9096 36.3919ZM22.2018 32.1489C22.1945 31.7917 21.9923 31.5274 21.7251 31.456C21.4218 31.3774 21.1329 31.4846 20.9595 31.7703C20.5045 32.5418 20.0567 33.3132 19.6089 34.0847C19.3995 34.4418 19.4934 34.8276 19.8184 35.0204C20.1506 35.2133 20.5334 35.099 20.7573 34.7204C21.1979 33.9775 21.6384 33.2275 22.0645 32.4775C22.144 32.356 22.1801 32.2132 22.2018 32.1489ZM26.5785 34.649C26.3041 34.6633 26.0585 34.7704 25.8996 35.0562C25.6757 35.4633 25.423 35.8562 25.2063 36.2634C25.098 36.4634 25.0113 36.6848 24.968 36.9134C24.8885 37.2634 25.033 37.492 25.3507 37.6206C25.6396 37.7349 25.9646 37.6563 26.138 37.3849C26.5063 36.7848 26.8674 36.1776 27.1997 35.549C27.4163 35.1205 27.0913 34.649 26.5785 34.649Z" fill="#02B5B5"/>
<path d="M31.5908 21.0841C32.1181 21.9699 32.1542 22.8842 32.1253 23.8128C32.1181 24.0342 32.0386 24.1842 31.8003 24.1842C31.562 24.1842 31.4825 24.0271 31.4681 23.8057C31.432 23.2628 31.4608 22.7056 31.3381 22.1842C31.0636 21.077 30.3414 20.3198 29.2652 19.8555C29.1497 20.0698 29.0413 20.2626 28.933 20.4555C28.3047 21.6127 27.6835 22.7699 27.0407 23.9128C26.9685 24.0414 26.8024 24.1985 26.6796 24.1985C26.5568 24.1985 26.3907 24.0414 26.3185 23.9057C25.6179 22.6485 24.9318 21.3841 24.2457 20.1198C24.2023 20.034 24.1446 19.9555 24.0868 19.8483C22.9817 20.3269 22.2523 21.1198 21.9923 22.277C21.8839 22.7485 21.9056 23.2485 21.8839 23.7414C21.8695 24.0342 21.7756 24.1771 21.5589 24.17C21.3495 24.17 21.2339 24.02 21.2339 23.7342C21.2339 22.777 21.1834 22.2913 21.7323 21.0841C21.6456 21.077 21.5734 21.0627 21.4939 21.0627C21.0895 21.0627 20.6778 21.077 20.2733 21.0627C18.8289 21.0055 17.955 22.1556 17.9188 23.3414C17.9188 23.4628 17.955 23.6056 17.9044 23.7128C17.8466 23.8271 17.7311 23.9628 17.6155 23.9985C17.4349 24.0485 17.3122 23.9199 17.276 23.7342C16.9727 22.2913 18.2727 20.5626 19.775 20.4555C20.4828 20.4055 21.1978 20.4269 21.9128 20.4412C22.1006 20.4412 22.2234 20.4126 22.3534 20.2698C22.8156 19.7626 23.379 19.4054 24.029 19.1769C24.3251 19.0769 24.4262 19.1126 24.5779 19.384C24.9607 20.0769 25.3435 20.7769 25.7479 21.527C25.8346 21.2127 25.9213 20.9484 25.9718 20.6841C25.9863 20.5841 25.9285 20.4626 25.8635 20.3698C25.6685 20.0769 25.4446 19.8126 25.2568 19.5126C25.1918 19.4054 25.1485 19.2197 25.199 19.1269C25.2496 19.034 25.4301 18.9554 25.5529 18.9554C26.2896 18.9411 27.0335 18.9411 27.7702 18.9554C27.893 18.9554 28.0808 19.034 28.1241 19.1269C28.1747 19.234 28.1313 19.4197 28.0591 19.534C27.893 19.8055 27.698 20.0698 27.4958 20.3198C27.3513 20.4984 27.3224 20.6769 27.4019 20.8912C27.4669 21.0698 27.5102 21.2627 27.5824 21.5127C27.6691 21.3627 27.7341 21.2627 27.7919 21.1555C28.1097 20.5769 28.4202 19.9912 28.738 19.4126C28.9041 19.1126 28.998 19.0769 29.3302 19.1983C29.9803 19.4269 30.5364 19.7983 30.9986 20.3055C31.1069 20.4269 31.2081 20.4555 31.367 20.4555C32.0314 20.4412 32.7031 20.4126 33.3676 20.4484C34.812 20.5269 35.9604 21.6984 36.0398 23.1271C36.0471 23.3056 36.0471 23.4842 36.0471 23.6628C36.0471 23.8771 35.946 24.0128 35.7293 24.0128C35.5054 24.0128 35.4187 23.8699 35.4043 23.6628C35.3826 23.3985 35.3971 23.1271 35.3393 22.8628C35.1082 21.7698 34.2559 21.0841 33.1292 21.0698C32.6598 21.077 32.1614 21.0841 31.5908 21.0841ZM26.7013 23.2199C26.8168 23.0056 26.918 22.8056 27.0335 22.6199C27.1419 22.4484 27.1635 22.2913 27.0985 22.0913C26.9757 21.727 26.8891 21.3555 26.7807 20.9841C26.6796 20.6341 26.7302 20.3198 26.9541 20.0269C27.048 19.9055 27.1346 19.7697 27.2357 19.634C26.853 19.634 26.5135 19.634 26.0802 19.634C26.8024 20.2269 26.7157 20.9055 26.4268 21.5841C26.174 22.1699 26.2752 22.677 26.6507 23.1628C26.6507 23.1699 26.6579 23.1771 26.7013 23.2199Z" fill="#02B5B5"/>
<path d="M29.4602 15.8767C29.4025 16.1338 29.3375 16.6553 29.1569 17.1267C28.7452 18.2125 27.8063 18.8054 26.6652 18.7982C25.5457 18.7911 24.6357 18.1625 24.2095 17.0982C23.9134 16.3553 23.8556 15.5909 24.0507 14.8123C24.3034 13.798 25.0762 13.1051 26.1163 12.9551C27.0624 12.8194 27.9363 12.948 28.6585 13.6194C29.2363 14.1694 29.4025 14.8695 29.4602 15.8767ZM28.7886 15.6624C28.7813 15.5695 28.7741 15.4124 28.7597 15.2552C28.6441 14.3337 28.0735 13.7266 27.1491 13.6051C26.7879 13.5551 26.4052 13.5623 26.0513 13.6337C25.4446 13.7551 24.9751 14.1123 24.7657 14.7052C24.4551 15.5767 24.5201 16.4338 24.9968 17.2339C25.7479 18.4911 27.6113 18.4839 28.3841 17.241C28.6658 16.7767 28.7813 16.2696 28.7886 15.6624Z" fill="#02B5B5"/>
<path d="M22.9096 17.9267C22.9096 18.9339 22.3896 19.7554 21.5879 20.034C20.3673 20.4554 19.1323 19.6839 18.9662 18.3553C18.9228 18.0267 18.9228 17.6696 18.9878 17.3481C19.1901 16.3624 20.0279 15.7909 21.0896 15.8838C22.1657 15.9766 22.8446 16.6481 22.9024 17.691C22.9096 17.7696 22.9096 17.8481 22.9096 17.9267ZM22.3101 17.941C22.2668 17.1981 21.9707 16.7267 21.3857 16.5909C21.1257 16.5338 20.844 16.5266 20.584 16.5624C20.1073 16.6267 19.7751 16.8981 19.6451 17.3695C19.5078 17.8553 19.544 18.3267 19.7679 18.7768C19.9917 19.2482 20.3818 19.4911 20.909 19.4982C21.4507 19.5054 21.8551 19.2625 22.0718 18.7768C22.1801 18.5125 22.2307 18.2196 22.3101 17.941Z" fill="#02B5B5"/>
<path d="M34.5304 17.9197C34.4148 18.3125 34.3498 18.7197 34.1765 19.084C33.8443 19.7983 33.2304 20.1484 32.4359 20.1341C31.6559 20.1269 31.0709 19.7626 30.7242 19.0626C30.4136 18.4483 30.3703 17.7911 30.5725 17.1339C30.8253 16.3125 31.5981 15.8267 32.5442 15.8696C33.7359 15.9267 34.4437 16.6839 34.451 17.8911C34.4799 17.9054 34.5015 17.9125 34.5304 17.9197ZM33.8226 17.9054C33.8009 17.4268 33.6998 16.9982 33.2593 16.7196C32.3637 16.1553 31.2442 16.6625 31.1287 17.6982C31.107 17.8982 31.1214 18.1125 31.1503 18.3125C31.2659 19.0269 31.7715 19.484 32.4359 19.4983C33.1076 19.5055 33.5987 19.0912 33.7432 18.3768C33.7865 18.2268 33.8009 18.0625 33.8226 17.9054Z" fill="#02B5B5"/>
<path d="M58.683 19.8421H63.0621V34.2105L58.683 34.19V19.8421Z" fill="#02B5B5"/>
<path d="M66.3644 34.19V19.8421H69.436L79.9789 28.4221V19.8421H84.358V34.2105H81.0374L70.7434 25.8358V34.2105L66.3644 34.19Z" fill="#02B5B5"/>
<path d="M86.2542 19.8421H90.7163L96.1538 29.6947L101.612 19.8421H106.095L98.2292 34.2105H94.1407L86.2542 19.8421Z" fill="#02B5B5"/>
<path d="M107.973 19.8421H125.324L122.107 23.0647H112.353V25.5895H123.207L120.26 28.5042H112.353V30.9879H124.805L121.567 34.2105H107.973V19.8421Z" fill="#02B5B5"/>
<path d="M142.538 25.5895L145.734 29.7974L142.455 34.2105H125.603L128.82 30.9879H139.882L140.919 29.8179L139.861 28.5042H128.799L125.603 24.2553L128.903 19.8421H145.734L142.497 23.0647H131.456L130.397 24.2758L131.456 25.5895H142.538Z" fill="#02B5B5"/>
<path d="M146.506 19.8421H165.953L162.736 23.0647H158.419V34.19H154.04V23.0647H149.723L146.506 19.8421Z" fill="#02B5B5"/>
<path d="M181.37 19.8421L184.669 23.1058V30.9468L181.37 34.2105H169.291L165.991 30.9468V23.1058L169.291 19.8421H181.37ZM180.29 23.0647H170.37V30.9879H180.29V23.0647Z" fill="#02B5B5"/>
<path d="M187.645 19.8421H202.816L206.116 24.2758L203.605 27.6011L206.116 30.0847V34.19H201.737V30.68L200.409 29.4074H192.024V34.2105H187.645V19.8421ZM192.024 26.1437H200.43L201.613 24.5426L200.471 23.0647H192.024V26.1437Z" fill="#02B5B5"/>
<path d="M224.804 25.5895L228 29.7974L224.721 34.2105H207.869L211.086 30.9879H222.147L223.185 29.8179L222.127 28.5042H211.065L207.869 24.2553L211.169 19.8421H228L224.762 23.0647H213.721L212.663 24.2758L213.721 25.5895H224.804Z" fill="#02B5B5"/>
</svg>
