<svg width="90" height="90" viewBox="0 0 90 90" fill="none" xmlns="http://www.w3.org/2000/svg">
<path fill-rule="evenodd" clip-rule="evenodd" d="M48.4939 18.3052L48.494 18.3052C49.1772 18.3882 49.8465 18.4694 50.5031 18.6195C54.5731 19.5495 57.3362 21.0405 58.4903 21.6633C58.798 21.8294 58.9914 21.9337 59.0646 21.9492L67.7448 10.0399C67.8155 9.94031 67.9264 9.79432 68.0535 9.62686L68.0537 9.6266C68.4089 9.15885 68.8912 8.52369 68.983 8.26434C68.8264 8.08353 68.4466 7.85344 68.1376 7.6662C68.0553 7.61631 67.978 7.56947 67.9112 7.52741C67.5226 7.28298 67.1525 7.0649 66.7865 6.855C66.0053 6.40702 65.1794 5.97844 64.3894 5.5759C61.071 3.88607 57.3185 2.66876 53.5982 1.89548C52.1333 1.59108 48.5225 1.00196 47.0836 1.12433L47.0666 18.1092C47.5492 18.1905 48.0248 18.2483 48.4939 18.3052ZM63.2771 25.2444L63.277 25.2443C62.918 24.9132 62.6135 24.6323 62.4902 24.4847L64.9778 21.0051C65.5526 20.1782 66.1581 19.3596 66.7129 18.6097L66.7136 18.6087C66.9754 18.2548 67.2258 17.9163 67.4563 17.5994C67.5108 17.5245 67.6794 17.2892 67.9236 16.9482L67.9238 16.9479L67.9243 16.9472C69.1372 15.2537 72.2136 10.9584 72.4582 10.7626C72.9671 11.074 73.5791 11.6371 74.1162 12.1312L74.1163 12.1313L74.117 12.132L74.1178 12.1328L74.1196 12.1343C74.3136 12.3129 74.4978 12.4823 74.6637 12.6275C76.477 14.2131 78.9225 16.9894 80.3575 18.9712C81.4864 20.5302 82.582 22.2451 83.5052 23.9198C83.9434 24.7149 85.9416 28.6488 85.9943 29.4503L69.8991 34.6475L68.4031 31.708C67.2548 29.6756 66.2478 28.3865 64.6897 26.6249C64.3178 26.2042 63.7502 25.6807 63.2771 25.2444ZM7.93257 30.7533L3.96522 29.436C3.94494 28.7242 6.04787 24.5958 6.4716 23.8338C8.21253 20.7046 10.853 16.9876 13.2976 14.5396C13.7332 14.1028 16.9169 10.9486 17.5192 10.7729L22.5035 17.62C23.3134 18.7646 24.1591 19.9383 24.9681 21.0402C25.0273 21.1208 25.1304 21.2592 25.262 21.4358C25.9263 22.327 27.3145 24.1896 27.4176 24.4844C27.2836 24.6934 26.5196 25.3724 26.3028 25.5651L26.3028 25.5651L26.2871 25.579C25.4118 26.3562 23.8824 28.1369 23.2244 29.0804C22.6079 29.9655 22.035 30.8163 21.5077 31.7259C21.1636 32.3186 20.8633 32.9772 20.6017 33.5509C20.4067 33.9787 20.2332 34.3592 20.0791 34.63C19.6853 34.6282 14.2104 32.82 10.6897 31.6573L10.6887 31.6569L10.6886 31.6569C9.37782 31.224 8.33805 30.8806 7.93257 30.7533ZM2.59021 33.4838L4.68042 34.0981L17.8167 38.3728C17.9163 38.4061 17.9986 38.4311 18.0805 38.4559L18.0809 38.456L18.0812 38.4561L18.0813 38.4562L18.0814 38.4562L18.0816 38.4562L18.0818 38.4563C18.1594 38.4798 18.2366 38.5032 18.3279 38.5336L18.7389 38.7423L18.2317 41.786C17.9414 43.6791 17.9762 46.4018 18.2501 48.3136C18.27 48.4516 18.3133 48.7063 18.3653 49.0119L18.3654 49.0125L18.3655 49.0131L18.3656 49.0135C18.5128 49.8788 18.7292 51.1509 18.6787 51.3395C18.3094 51.4916 17.8453 51.6317 17.3995 51.7662C17.1263 51.8487 16.8599 51.9291 16.6266 52.0089C14.9087 52.5959 3.09385 56.4744 2.57084 56.5131C1.17465 51.1556 0.572039 44.5248 1.48276 38.8095C1.64196 37.8091 2.22338 34.2353 2.59021 33.4838ZM3.94464 60.597C4.06964 61.5217 5.8808 65.1007 6.45132 66.119C7.8454 68.6027 9.48101 71.0915 11.3415 73.2663C12.6027 74.7398 13.9241 76.0952 15.2613 77.3707C15.8697 77.951 16.6838 78.6786 17.4345 79.208C17.6774 79.0766 18.2019 78.3198 18.5265 77.8514L18.5266 77.8513L18.5269 77.8509L18.5282 77.849L18.5286 77.8484C18.6019 77.7427 18.6649 77.6518 18.712 77.5864C19.2146 76.8892 19.7674 76.115 20.3429 75.309L20.3443 75.3071L20.3451 75.3059C21.8822 73.1531 23.5809 70.774 24.9176 69.031C25.1768 68.693 25.411 68.3653 25.6478 68.0341C25.8192 67.7942 25.992 67.5525 26.1767 67.3036C26.2888 67.1525 26.3785 67.0285 26.4662 66.9072L26.4663 66.9071L26.4675 66.9055C26.5682 66.7662 26.6666 66.6303 26.7935 66.4609L26.8397 66.3994L26.8399 66.3992C27.0064 66.1778 27.2914 65.7991 27.4179 65.5486C27.3078 65.2986 26.9268 64.9788 26.6234 64.7243L26.6234 64.7242C26.5162 64.6343 26.4188 64.5526 26.3464 64.4849C24.5701 62.8251 22.7481 60.4331 21.5301 58.2953C21.1924 57.7018 20.8642 56.992 20.5878 56.394L20.5877 56.3938L20.5877 56.3938L20.5877 56.3938C20.3848 55.9548 20.2097 55.5761 20.0791 55.3479C19.7724 55.3468 15.8758 56.6385 13.5771 57.4006L13.5771 57.4006L13.5737 57.4017L13.5724 57.4022L13.5696 57.4031L13.5641 57.4049C12.8257 57.6497 12.2541 57.8392 12.0225 57.9125L11.6512 58.0297L11.6511 58.0297L11.6507 58.0298L11.6499 58.0301C9.92468 58.574 4.22469 60.371 3.94464 60.597ZM36.3774 88.093C30.4954 86.7121 26.0156 85.2013 20.943 81.769C21.007 81.501 23.3038 78.3792 24.7641 76.3944C25.306 75.6579 25.7327 75.078 25.8873 74.8586C26.4725 74.0284 27.1157 73.1488 27.7179 72.3253L27.718 72.3251L27.7185 72.3245C27.9529 72.0039 28.1812 71.6918 28.3973 71.3944L28.679 71.0071C28.9866 70.5842 29.287 70.1711 29.6558 69.6649C29.7332 69.5589 29.8292 69.4162 29.9356 69.2579L29.9357 69.2578L29.936 69.2573L29.9361 69.2571C30.2402 68.805 30.6294 68.2263 30.9131 68.0142C31.3102 68.2066 31.6899 68.4217 32.0744 68.6396C32.5262 68.8956 32.9847 69.1553 33.486 69.3866C34.3644 69.7921 35.2651 70.1662 36.2636 70.5097C38.3072 71.2118 40.4349 71.6537 42.8006 71.8439C42.9709 72.2726 42.915 82.062 42.8885 86.6916V86.6917C42.8825 87.7396 42.8781 88.5231 42.8781 88.8739C41.0681 88.8948 38.056 88.4871 36.3774 88.093ZM47.0936 88.8835C48.2979 88.9693 52.1962 88.3904 53.4641 88.1154C55.5222 87.669 57.3188 87.2134 59.1848 86.5834C61.3963 85.8368 67.1879 83.284 68.9694 81.7693C68.9175 81.4897 67.6705 79.8183 66.9599 78.8658L66.9599 78.8657C66.7706 78.612 66.6194 78.4093 66.5389 78.2976L59.0646 68.0248L56.3615 69.4268C55.4874 69.8297 54.4254 70.2607 53.4493 70.5884C51.6693 71.1866 50.2567 71.4632 48.4111 71.7149C48.0542 71.7635 47.7901 71.7865 47.5949 71.8035C47.2872 71.8303 47.1508 71.8422 47.0928 71.9158C47.0467 71.9744 47.0501 72.072 47.0562 72.2472V72.2474V72.2475C47.0583 72.3077 47.0607 72.3771 47.0615 72.4572C47.0652 72.8391 47.0601 74.2313 47.0533 76.0559C47.0359 80.7544 47.0079 88.3202 47.0936 88.8835ZM64.3159 68.0931L64.3159 68.093L64.3155 68.0925C63.5976 67.1199 62.5772 65.7374 62.5002 65.4629C62.7984 65.2271 63.0353 64.9916 63.2621 64.7661L63.2622 64.7659L63.2624 64.7658L63.2624 64.7657C63.3875 64.6414 63.5095 64.5201 63.637 64.4034C66.9878 61.3364 68.6007 57.9527 69.3989 56.2781C69.6268 55.8 69.7883 55.4612 69.9049 55.3088L85.984 60.5452C86.0091 61.22 83.8554 65.4123 83.4906 66.092C81.7515 69.3332 79.2149 72.7395 76.6798 75.4071C76.0611 76.0574 73.2006 78.8409 72.4579 79.2111C72.1899 79.0115 69.2334 74.8828 67.9452 73.084L67.9448 73.0835L67.9445 73.083L67.944 73.0823C67.708 72.7527 67.5281 72.5015 67.4312 72.3673C67.0539 71.8443 66.6948 71.357 66.3443 70.8813C65.8596 70.2235 65.3914 69.5881 64.9145 68.9119C64.7926 68.7388 64.5738 68.4424 64.3159 68.0931ZM71.4336 40.2727L71.4337 40.2728C71.6388 41.3227 71.8904 42.6104 71.8904 44.5472C71.8904 45.9458 71.838 46.5535 71.7491 47.5849C71.7245 47.8702 71.6972 48.1879 71.6673 48.5638C71.6467 48.8233 71.5543 49.2813 71.4588 49.7546L71.4587 49.7547L71.4587 49.7548C71.326 50.4124 71.1875 51.0993 71.2272 51.3237C72.0111 51.6227 72.8247 51.8756 73.6526 52.133L73.6527 52.133L73.6527 52.133L73.6528 52.1331L73.6529 52.1331L73.6529 52.1331L73.653 52.1331L73.6531 52.1332L73.6532 52.1332L73.6532 52.1332L73.6533 52.1332L73.6534 52.1332L73.6534 52.1333L73.6535 52.1333L73.6536 52.1333L73.6536 52.1333L73.6537 52.1334L73.6538 52.1334L73.6538 52.1334L73.6539 52.1334C74.1703 52.294 74.6923 52.4563 75.2161 52.6325L87.3369 56.5365C88.5745 51.4394 88.8838 49.2986 88.8838 44.0347C88.8838 40.6169 88.1747 36.4746 87.3521 33.4763C86.798 33.5392 82.5811 34.9434 78.5506 36.2856L78.5501 36.2857L78.5497 36.2859C75.3037 37.3668 72.1789 38.4073 71.1861 38.6745C71.2203 39.1808 71.3198 39.6901 71.4336 40.2727ZM28.3319 18.5265L20.9357 8.26404C21.956 7.04824 28.6216 4.12748 30.6225 3.44719C33.8417 2.35254 39.4846 0.984694 42.8783 1.15431L42.8484 18.0819C42.7063 18.1362 42.2824 18.199 41.6864 18.2873C40.3447 18.486 38.1311 18.8139 36.299 19.4649C35.3744 19.7932 34.3895 20.1761 33.5166 20.5916L30.9131 21.958C30.677 21.7951 29.5627 20.239 28.8556 19.2516L28.8555 19.2515C28.6199 18.9226 28.4296 18.6567 28.3319 18.5265ZM37.1366 45.7393C37.4756 45.8437 37.8033 45.9728 38.1293 46.1012C38.8845 46.3987 39.6303 46.6925 40.4846 46.6666C41.0369 46.6563 41.5891 46.7986 42.1344 46.9391L42.1344 46.9391C42.2478 46.9683 42.3609 46.9974 42.4736 47.0251C42.7701 47.0993 42.9925 47.0622 43.2519 46.9138C44.6232 46.0855 46.0687 45.4055 47.6994 45.3437C48.3029 45.3225 48.9246 45.4466 49.5334 45.5682L49.5351 45.5685L49.6595 45.5933C49.7187 45.6051 49.7778 45.6167 49.8367 45.6281C50.2938 45.7146 50.7509 45.8259 51.1709 46.0113C52.1963 46.4811 53.1476 46.2215 54.1359 45.8011C54.1112 45.7022 54.0741 45.6033 54.0371 45.5044C53.7406 44.6637 54 43.8478 54.7536 43.3656C55.6554 42.7969 56.5573 42.2405 57.4715 41.6965C58.3734 41.1649 59.374 41.3998 59.93 42.3023C61.956 45.5662 63.9698 48.8425 65.9711 52.1188C66.5271 53.0213 66.28 54.0103 65.3905 54.579C64.501 55.1478 63.6115 55.6917 62.7096 56.2234C61.9684 56.6684 61.2395 56.5819 60.6465 56.1245C60.3168 56.3567 59.9991 56.5798 59.6815 56.8029L59.677 56.8061L59.6767 56.8063L59.6705 56.8106C59.3493 57.0362 59.0281 57.2619 58.6946 57.4968C58.7687 58.8938 58.2745 59.5614 56.8785 59.8334C56.4832 61.6137 55.9643 62.1083 54.3088 62.3308C53.9382 64.1111 53.2958 64.7416 51.7639 64.9271C51.6581 65.1049 51.5668 65.2828 51.4786 65.4547L51.4784 65.4552L51.4783 65.4553L51.4783 65.4553C51.3091 65.785 51.1511 66.0928 50.9238 66.3365C50.0837 67.1896 48.626 67.2761 47.5264 66.5961C47.2919 66.4536 47.0744 66.2941 46.8547 66.1329L46.8544 66.1327L46.8537 66.1322C46.7497 66.0559 46.6452 65.9792 46.5381 65.9038C46.2663 65.706 45.9945 65.5082 45.6857 65.2856C45.1421 65.9656 44.4503 66.3736 43.5608 66.2747C42.7083 66.1881 42.0783 65.7183 41.6582 64.9271C41.0158 65.3227 40.3487 65.4834 39.6322 65.2485C38.9033 65.0136 38.4462 64.5067 38.162 63.7773C37.4578 63.9751 36.766 64.0122 36.1112 63.6166C35.4565 63.221 35.1106 62.6275 34.9994 61.8486C33.801 61.9599 32.8745 61.5766 32.3927 60.4021C31.99 59.3946 32.4599 58.6146 32.9293 57.8356L32.9293 57.8355L32.9294 57.8353L32.9295 57.8352L32.9296 57.8351L32.9297 57.8349L32.9297 57.8348L32.9298 57.8347L32.9299 57.8345L32.93 57.8344L32.9301 57.8342L32.9301 57.8341L32.9302 57.834L32.9303 57.8338L32.9304 57.8337C33.0078 57.7052 33.0852 57.5768 33.1586 57.4473C32.961 57.1919 32.7648 56.9392 32.5686 56.6866L32.5682 56.6861L32.5677 56.6854C32.1753 56.1802 31.783 55.6749 31.3796 55.1478L31.3795 55.1479C31.2807 55.2962 31.1819 55.4445 31.0708 55.5928C30.5272 56.3594 29.5883 56.619 28.7853 56.1615C27.7969 55.5928 26.8086 54.9994 25.8573 54.3812C25.0296 53.8373 24.8814 52.8358 25.4373 51.9209C26.333 50.4497 27.2317 48.9816 28.1305 47.5135C29.0293 46.0453 29.928 44.5772 30.8237 43.106C30.882 43.0098 30.9394 42.9137 30.9966 42.8179L30.9968 42.8175C31.1455 42.5683 31.2932 42.3208 31.4537 42.0798C31.985 41.2886 32.9486 41.0289 33.7763 41.5111C34.7399 42.0674 35.6912 42.6485 36.6178 43.242C37.4331 43.7983 37.6185 44.6514 37.1366 45.7393ZM46.9242 64.8201L46.9246 64.8204C47.2866 65.0895 47.6389 65.3515 47.9959 65.5947C48.5765 65.9903 49.1942 66.0521 49.849 65.7554C50.5656 65.4216 50.6273 64.89 50.0096 64.4202C49.6923 64.1782 49.3703 63.9455 49.0493 63.7136L49.0492 63.7135L49.0491 63.7134L49.0491 63.7134L49.049 63.7133L49.0489 63.7132L49.0488 63.7132L49.0487 63.7131L49.0486 63.713L49.0485 63.7129L49.0484 63.7129L49.0483 63.7128L49.0482 63.7127L49.0481 63.7127L49.048 63.7126L49.048 63.7125L49.0478 63.7124L49.0476 63.7123L49.0475 63.7122L49.0473 63.7121L49.0472 63.712L49.047 63.7118L49.0468 63.7117L49.0467 63.7116L49.0465 63.7115L49.0464 63.7114L49.0462 63.7113L49.046 63.7112L49.0459 63.711C48.8432 63.5646 48.641 63.4184 48.4406 63.2704C48.1441 63.0602 47.9835 62.8006 48.2059 62.4421C48.3912 62.1454 48.7371 62.1206 49.0954 62.3679C49.2713 62.4924 49.4427 62.6229 49.6138 62.7531L49.6139 62.7532C49.9355 62.9979 50.2559 63.2418 50.6026 63.4435C50.9609 63.6413 51.3933 63.7773 51.8133 63.7897C52.3816 63.8144 52.9746 63.3075 53.1105 62.8253C53.2806 62.2172 52.8769 61.9441 52.4639 61.6647L52.4434 61.6508C51.6527 61.1068 50.8744 60.5505 50.0961 59.9942C49.812 59.784 49.6761 59.5243 49.8984 59.2029C50.1332 58.8691 50.4297 58.8938 50.7509 59.0916C50.8373 59.1535 50.9238 59.2153 51.0227 59.2771C51.3995 59.5429 51.7793 59.8087 52.1592 60.0745C52.5391 60.3403 52.919 60.6061 53.2958 60.8719C53.7529 61.1934 54.2594 61.2799 54.7907 61.1192C55.2478 60.9832 55.6184 60.7236 55.7049 60.229C55.7913 59.7345 55.4578 59.4378 55.0748 59.2029C54.6054 58.9124 54.1328 58.6187 53.6603 58.3251C53.1877 58.0315 52.7152 57.7379 52.2457 57.4473C51.9245 57.2495 51.7145 57.0022 51.9245 56.6066C52.0975 56.2852 52.431 56.2481 52.8511 56.5077C53.066 56.6409 53.28 56.774 53.4935 56.9069L53.4958 56.9083L53.4959 56.9084C54.0549 57.2562 54.611 57.6023 55.1736 57.9418C55.2972 58.016 55.4194 58.0943 55.5415 58.1726C55.7859 58.3292 56.0302 58.4858 56.2855 58.6095C56.755 58.8444 57.3603 58.6466 57.5827 58.2386C57.768 57.9048 57.6198 57.5586 57.1132 57.2124C54.0124 55.0736 50.9115 52.9347 47.8106 50.7835C47.5882 50.6352 47.44 50.6475 47.1929 50.7341L47.1289 50.7582C46.7488 50.9015 46.32 51.0633 45.9575 50.9813C45.3768 50.8701 45.0556 51.0803 44.6973 51.4635C44.0302 52.1929 43.2272 52.6751 42.2018 52.7246C41.337 52.7617 40.6452 52.4649 40.2252 51.6984C39.8051 50.9195 39.904 50.1777 40.4352 49.4854C40.6823 49.1706 40.9386 48.8649 41.2149 48.5352L41.215 48.5352C41.3944 48.3211 41.5824 48.0968 41.7818 47.8534C39.9163 47.8411 38.1991 47.4949 36.6548 46.6418C36.6259 46.6672 36.6022 46.6872 36.5826 46.7039L36.5826 46.7039C36.5353 46.7439 36.5117 46.764 36.4942 46.7902C35.0611 49.1145 33.6404 51.4511 32.2197 53.7878C32.1703 53.862 32.1209 54.0103 32.1579 54.0722C32.4689 54.5504 32.7893 55.0193 33.1189 55.5019L33.1198 55.5032L33.12 55.5034L33.1204 55.504L33.1205 55.5042L33.1207 55.5044L33.1208 55.5046L33.1211 55.5051L33.1212 55.5052L33.1213 55.5054L33.1214 55.5055L33.1215 55.5056C33.3279 55.8077 33.5379 56.1152 33.7516 56.4335C33.9063 56.1688 34.0489 55.9174 34.1856 55.6764L34.1861 55.6754L34.1866 55.6746L34.1872 55.6736L34.1873 55.6735L34.1879 55.6723L34.1881 55.6721C34.4653 55.1832 34.7186 54.7369 34.9994 54.3071C35.9136 52.8606 37.9891 52.9224 38.8415 54.3936L38.8416 54.3937C38.9033 54.4926 38.9651 54.5914 39.0268 54.715C39.6816 54.406 40.3116 54.3318 40.9788 54.5914C41.6459 54.8634 42.0659 55.3703 42.313 56.0379C43.2272 55.7412 44.0302 55.8277 44.7344 56.4583C45.4262 57.0888 45.5498 57.9048 45.3892 58.7702C45.4262 58.7826 45.451 58.7949 45.4695 58.8042C45.488 58.8135 45.5004 58.8196 45.5127 58.8196C47.1311 58.6837 48.4777 60.6123 47.3658 62.3803C47.0296 62.8706 46.753 63.3685 46.4724 63.8738L46.4723 63.8739C46.3922 64.0183 46.3116 64.1633 46.2293 64.3089C46.4671 64.4803 46.6975 64.6516 46.9242 64.8201ZM54.8524 46.9138C54.543 46.9687 54.2399 47.0397 53.9417 47.1096C53.2993 47.26 52.6803 47.4051 52.0728 47.3713C51.424 47.3362 50.7814 47.1205 50.1406 46.9054C49.8785 46.8175 49.6167 46.7296 49.3549 46.6542C49.3293 46.6491 49.3059 46.6398 49.2828 46.6306L49.2828 46.6305C49.2501 46.6175 49.2181 46.6048 49.1819 46.6048C49.0535 46.5892 48.9238 46.565 48.7937 46.5408L48.7937 46.5408L48.7936 46.5407H48.7936C48.5107 46.488 48.2257 46.4349 47.9465 46.4688C45.1421 46.7655 42.8689 48.0142 41.2135 50.3137C40.7811 50.9072 41.1888 51.6366 41.9177 51.6613C42.5354 51.6737 43.0666 51.4635 43.5237 51.0555C43.882 50.7341 44.2279 50.4003 44.5491 50.0541C44.8209 49.7574 45.105 49.6585 45.5004 49.8439C45.9698 50.0665 46.464 50.0047 46.8593 49.6832C47.3288 49.2999 47.687 49.3988 48.1318 49.7203C50.3924 51.2976 52.6597 52.8618 54.9287 54.4272C55.772 55.009 56.6156 55.591 57.4591 56.1739C57.6074 56.2728 57.7927 56.3964 57.9533 56.3841C58.6204 56.3223 59.2258 56.0626 59.5717 55.4568C59.6829 55.259 59.7199 54.8881 59.6088 54.7027C58.1959 52.3388 56.7633 50.0144 55.3551 47.7295L55.3551 47.7295L55.355 47.7294L55.355 47.7294L55.355 47.7294L55.355 47.7293L55.355 47.7293L55.3549 47.7293L54.8524 46.9138ZM29.8793 55.195L29.8793 55.1949C30.0084 55.0995 30.1389 55.003 30.2183 54.8758C32.2073 51.649 34.184 48.4098 36.1607 45.1583C36.4325 44.7008 36.3583 44.4041 35.8889 44.1074C35.0611 43.5881 34.2334 43.0812 33.4057 42.5867C32.8868 42.2776 32.6027 42.3394 32.2938 42.8587C30.3295 46.0731 28.3652 49.2876 26.4009 52.4897C26.0921 52.9966 26.1662 53.2809 26.6851 53.6023C27.5004 54.1092 28.3158 54.6038 29.1312 55.0983C29.2339 55.1637 29.3507 55.215 29.5082 55.2841L29.5083 55.2842L29.5084 55.2842C29.5593 55.3065 29.6144 55.3308 29.6748 55.3579C29.7365 55.3006 29.8076 55.2479 29.8793 55.195ZM58.5092 42.4878C58.4377 42.5128 58.3745 42.5337 58.3175 42.5526L58.3174 42.5526C58.1773 42.5989 58.0746 42.6329 57.978 42.6856C57.7946 42.7973 57.6106 42.9091 57.4264 43.0209L57.4263 43.021L57.4261 43.0211L57.426 43.0212L57.4258 43.0213L57.4257 43.0214L57.4255 43.0215L57.4254 43.0216L57.4252 43.0216L57.4251 43.0217L57.4249 43.0218L57.4248 43.0219L57.4246 43.022L57.4245 43.0221L57.4243 43.0222L57.4242 43.0223C56.7531 43.4298 56.0793 43.839 55.4207 44.2557C54.976 44.5401 54.8895 44.8615 55.1736 45.3066C55.7073 46.1745 56.241 47.0433 56.775 47.9125L56.7804 47.9214L56.8045 47.9606L56.8091 47.9681C58.2414 50.2997 59.6754 52.6343 61.116 54.9623C61.4125 55.4445 61.7213 55.5187 62.2031 55.2343C63.0432 54.7274 63.8833 54.2081 64.7234 53.6765C65.1805 53.3922 65.2422 53.0955 64.9705 52.6257C64.6245 52.0446 64.2663 51.4635 63.908 50.8948C63.469 50.1817 63.0299 49.4677 62.5907 48.7532L62.5788 48.734C61.4151 46.8413 60.2495 44.9456 59.0775 43.0565C58.9783 42.9076 58.8404 42.7864 58.7045 42.6669L58.7045 42.6669L58.7044 42.6668L58.7044 42.6668L58.7044 42.6668L58.7043 42.6667L58.7043 42.6667L58.7043 42.6667L58.7042 42.6666L58.7042 42.6666L58.7042 42.6666L58.7039 42.6663C58.6369 42.6074 58.5704 42.549 58.5092 42.4878ZM41.2258 56.8539C41.2258 56.2234 40.917 55.803 40.4722 55.6547C40.0028 55.4939 39.4963 55.6299 39.1998 56.0626C38.7921 56.6808 38.4091 57.3113 38.0508 57.9542C37.9731 58.0891 37.8952 58.224 37.8172 58.359L37.8167 58.36L37.8161 58.361L37.8156 58.3619L37.8155 58.362C37.2867 59.2775 36.7559 60.1967 36.2719 61.1439C35.9383 61.7992 36.173 62.4421 36.7537 62.7264C37.3219 62.9984 37.9397 62.8006 38.2856 62.1948C39.1998 60.6123 40.114 59.0175 41.0158 57.4226C41.0961 57.2529 41.1507 57.0833 41.1887 56.9649L41.1887 56.9648C41.2034 56.9193 41.2156 56.8814 41.2258 56.8539ZM39.1874 62.9861C39.1874 63.6289 39.521 64.0617 40.0151 64.21C40.5217 64.3584 41.0158 64.1482 41.3247 63.6042C42.2512 62.0094 43.1778 60.4021 44.092 58.7949C44.4626 58.1397 44.302 57.472 43.7214 57.1506C43.1407 56.8292 42.5107 57.0393 42.1277 57.6946C41.4581 58.8446 40.7952 60.0012 40.134 61.1547L40.1338 61.155L40.1336 61.1554L40.1334 61.1557L40.1332 61.1561L40.133 61.1564C39.8918 61.5773 39.6508 61.9978 39.4098 62.4173C39.3388 62.5595 39.2879 62.7067 39.2476 62.8235L39.2475 62.8235L39.2475 62.8237L39.2473 62.8242C39.2246 62.8899 39.2052 62.946 39.1874 62.9861ZM37.9767 55.6423C37.9644 55.0241 37.6185 54.5667 37.1613 54.4431C36.6425 54.3071 36.1483 54.4925 35.8518 54.987C35.0735 56.3223 34.3075 57.6575 33.5416 58.9927C33.1833 59.6109 33.3439 60.2785 33.8999 60.6123C34.4682 60.9461 35.1229 60.7483 35.5059 60.0931C36.2595 58.8073 37.0131 57.5091 37.742 56.211C37.8552 56.0359 37.917 55.835 37.9559 55.7085C37.9637 55.6832 37.9705 55.6608 37.9767 55.6423ZM45.4633 59.9694C44.9938 59.9942 44.5738 60.1796 44.302 60.6741C44.1274 60.9954 43.9426 61.3115 43.758 61.6271L43.7579 61.6273L43.7578 61.6274C43.5375 62.0041 43.3176 62.3802 43.116 62.7635C42.9307 63.1097 42.7825 63.4929 42.7083 63.8886C42.5724 64.4944 42.8195 64.89 43.3631 65.1125C43.8573 65.3103 44.4132 65.1744 44.7097 64.7046C45.3398 63.666 45.9575 62.6152 46.5258 61.5272C46.8964 60.7854 46.3404 59.9694 45.4633 59.9694ZM54.9512 41.2145C55.0006 39.6072 54.9388 38.0247 54.037 36.4917C55.013 36.4917 55.8654 36.4793 56.6684 36.467C58.5956 36.4917 60.0534 37.6786 60.4488 39.5702C60.5146 39.8747 60.5256 40.1848 60.5366 40.4931L60.5366 40.4933L60.5366 40.4934L60.5366 40.4936L60.5366 40.4938L60.5366 40.494L60.5366 40.4942L60.5367 40.4944L60.5367 40.4945L60.5367 40.4947L60.5367 40.4949L60.5367 40.4951L60.5367 40.4953L60.5367 40.4955C60.5422 40.6493 60.5476 40.8028 60.5599 40.9548C60.5847 41.3134 60.7329 41.5606 61.1159 41.5606C61.4865 41.5606 61.6595 41.3257 61.6595 40.9548C61.6595 40.6458 61.6595 40.3367 61.6471 40.0276C61.5112 37.5549 59.5469 35.5274 57.0761 35.3914C56.1447 35.3407 55.205 35.3648 54.2706 35.3887H54.2705H54.2705H54.2704H54.2704H54.2704H54.2703H54.2703H54.2702H54.2702H54.2701H54.2701H54.27H54.27H54.2699L54.2678 35.3888C54.0629 35.3941 53.8583 35.3993 53.654 35.4037C53.3822 35.4037 53.2093 35.3543 53.0239 35.1441C52.2333 34.2663 51.282 33.6234 50.1701 33.2278C49.6019 33.0176 49.4413 33.0794 49.1571 33.5987C48.8853 34.0994 48.6166 34.6032 48.3479 35.107C48.0792 35.6108 47.8105 36.1146 47.5387 36.6153C47.4816 36.7226 47.4203 36.8257 47.3501 36.9438L47.3501 36.9438L47.3499 36.9441L47.3498 36.9442C47.2987 37.0302 47.2429 37.1242 47.1805 37.2335C47.1379 37.0845 47.1012 36.9472 47.0668 36.8186L47.0667 36.818L47.0667 36.8179L47.0666 36.8177L47.0666 36.8175C47.0013 36.5732 46.9444 36.3602 46.8716 36.1579C46.7357 35.787 46.7851 35.4779 47.0322 35.1688C47.3781 34.7361 47.7117 34.2787 47.9958 33.8089C48.1194 33.6111 48.1935 33.2896 48.107 33.1042C48.0329 32.9435 47.7117 32.8075 47.5017 32.8075C46.2415 32.7827 44.9691 32.7827 43.7089 32.8075C43.4989 32.8075 43.1901 32.9435 43.1036 33.1042C43.0171 33.2649 43.0912 33.5863 43.2024 33.7718C43.3809 34.0603 43.5784 34.3297 43.7759 34.5991C43.9339 34.8146 44.0919 35.0301 44.2402 35.2554C44.3514 35.4161 44.4502 35.6263 44.4255 35.7994C44.3637 36.1261 44.2704 36.4528 44.1681 36.8111L44.1681 36.8114C44.1272 36.9546 44.0848 37.1029 44.0425 37.2582C43.3507 35.9601 42.6959 34.7485 42.0411 33.5493C41.7817 33.0794 41.6087 33.0176 41.1022 33.1907C39.9904 33.5863 39.0267 34.2045 38.2361 35.0823C38.0137 35.3296 37.8037 35.379 37.4825 35.379L37.1483 35.3721C36.0367 35.3486 34.9261 35.3251 33.8257 35.4037C31.256 35.5892 29.0323 38.5811 29.5511 41.0785C29.6129 41.3999 29.8229 41.6225 30.1318 41.5359C30.3294 41.4741 30.5271 41.2392 30.6259 41.0414C30.6873 40.9099 30.674 40.7473 30.6612 40.5889C30.6559 40.5239 30.6507 40.4596 30.6507 40.3985C30.7124 38.3462 32.2073 36.3557 34.6781 36.4546C35.1394 36.4711 35.6063 36.4656 36.0713 36.4601H36.0714H36.0715H36.0715H36.0716H36.0717H36.0717H36.0718H36.0719H36.0719H36.072H36.0721H36.0721H36.0722H36.0723C36.3043 36.4574 36.5358 36.4546 36.7659 36.4546C36.8516 36.4546 36.9324 36.4644 37.0175 36.4748C37.0674 36.4809 37.1188 36.4871 37.1736 36.4917C36.3101 38.4133 36.3139 39.2787 36.3201 40.694C36.3206 40.8176 36.3212 40.9454 36.3212 41.0785C36.3212 41.573 36.5189 41.8326 36.8771 41.8326C37.2477 41.845 37.4084 41.5977 37.4331 41.0908C37.4423 40.878 37.4469 40.6644 37.4516 40.451V40.451V40.4509V40.4509V40.4508V40.4508V40.4507V40.4506V40.4506V40.4505V40.4505V40.4504V40.4504V40.4503V40.4502C37.4655 39.8085 37.4793 39.1685 37.6184 38.5564C38.0631 36.5535 39.3109 35.1812 41.2011 34.3529C41.2489 34.4426 41.2967 34.5208 41.3417 34.5944L41.3418 34.5944L41.3419 34.5945C41.3898 34.6729 41.4346 34.7462 41.4729 34.8227L41.4737 34.8243L41.474 34.8247C42.6472 37.0123 43.8205 39.2 45.0185 41.3752C45.142 41.6101 45.4262 41.8821 45.6362 41.8821C45.8462 41.8821 46.1303 41.6101 46.2539 41.3876C47.1366 39.7994 47.9955 38.1954 48.856 36.5882L48.8599 36.581C49.0699 36.1887 49.2801 35.7962 49.4907 35.4037L49.4911 35.403C49.6762 35.0695 49.8614 34.7359 50.059 34.3652C51.8997 35.1688 53.1351 36.4793 53.6046 38.3956C53.7516 39.0275 53.7715 39.6897 53.7914 40.3524C53.7999 40.6363 53.8084 40.9203 53.827 41.2021C53.8517 41.5854 53.9876 41.8574 54.3952 41.8574C54.8029 41.8574 54.9388 41.5977 54.9512 41.2145ZM45.8103 39.9287L45.8097 39.9299L45.8092 39.9309L45.8075 39.934C45.7637 40.0175 45.7191 40.1022 45.6732 40.1883L45.6732 40.1883L45.6732 40.1882C45.5991 40.1141 45.5868 40.1018 45.5868 40.0894C44.9444 39.2487 44.7714 38.3709 45.2038 37.3571C45.698 36.1826 45.8462 35.0081 44.6108 33.982H46.5874C46.5084 34.0893 46.4346 34.1966 46.3624 34.3015L46.3623 34.3016C46.2764 34.4264 46.1929 34.5478 46.1056 34.6619C45.7227 35.1688 45.6362 35.7128 45.8091 36.3186C45.8764 36.5519 45.9387 36.7852 46.0009 37.0179L46.001 37.0179L46.001 37.018L46.001 37.0181L46.001 37.0182L46.0011 37.0183L46.0011 37.0183L46.0011 37.0186L46.0012 37.0186L46.0012 37.0187L46.0012 37.0187L46.0012 37.0188L46.0012 37.0188L46.0012 37.0189L46.0012 37.0189C46.1104 37.4271 46.219 37.8335 46.3527 38.2349C46.4639 38.5811 46.4268 38.8531 46.2415 39.1498C46.0907 39.395 45.9543 39.6547 45.8103 39.9287ZM50.3133 27.889L50.3133 27.8892L50.3133 27.8893C50.2258 28.3692 50.1054 29.0302 49.8736 29.6424C49.1694 31.5216 47.5634 32.5478 45.6115 32.5354C43.6966 32.5231 42.14 31.4351 41.4111 29.593C40.9045 28.3072 40.8057 26.9843 41.1393 25.6367C41.5717 23.8812 42.8936 22.6819 44.6725 22.4223C46.2909 22.1874 47.7858 22.4099 49.0212 23.5721C50.0095 24.524 50.2937 25.7356 50.3925 27.4789C50.3678 27.5899 50.3424 27.7294 50.3133 27.889ZM49.2298 26.899L49.2298 26.8983C49.2208 26.753 49.21 26.5781 49.1942 26.4033C48.9965 24.8084 48.0205 23.7575 46.4392 23.5474C45.8215 23.4608 45.1667 23.4732 44.5614 23.5968C43.5236 23.807 42.7206 24.4251 42.3623 25.4513C41.8311 26.9596 41.9423 28.4432 42.7577 29.8279C44.0425 32.0038 47.2299 31.9914 48.5517 29.8402C49.0336 29.0366 49.2312 28.1588 49.2436 27.108C49.2392 27.051 49.2348 26.9801 49.2299 26.9001L49.2298 26.899ZM36.9267 34.6742C38.298 34.192 39.1875 32.7702 39.1875 31.027V31.0269C39.1875 30.8909 39.1875 30.755 39.1751 30.619C39.0763 28.814 37.915 27.6518 36.0742 27.4911C34.2582 27.3304 32.8251 28.3195 32.4792 30.0256C32.368 30.5819 32.368 31.2001 32.4421 31.7688C32.7263 34.0684 34.8388 35.4036 36.9267 34.6742ZM36.5807 28.7151C37.5814 28.95 38.088 29.766 38.1621 31.0517C38.1168 31.2125 38.077 31.3759 38.0372 31.5394L38.0371 31.5395C37.9575 31.8664 37.8779 32.1933 37.7544 32.4982C37.3838 33.3389 36.6919 33.7593 35.7654 33.7469C34.8635 33.7346 34.1964 33.3142 33.8134 32.4982C33.4305 31.7194 33.3687 30.9034 33.6034 30.0627C33.8258 29.2467 34.3941 28.7769 35.2094 28.6656C35.6542 28.6038 36.136 28.6162 36.5807 28.7151ZM58.8969 31.6565L58.8969 31.6566C58.7799 32.128 58.6637 32.5966 58.4598 33.03C57.8915 34.2663 56.8414 34.8722 55.4825 34.8474C54.1482 34.8351 53.1476 34.2045 52.5546 32.9929C52.0233 31.9297 51.9492 30.7923 52.2951 29.6549C52.7275 28.2331 54.0494 27.3924 55.6678 27.4666C57.7062 27.5655 58.9169 28.876 58.9293 30.9654C58.9787 30.9901 59.0158 31.0025 59.0652 31.0148C59.0034 31.2271 58.9501 31.4418 58.897 31.656L58.897 31.656L58.897 31.6561L58.897 31.6561L58.897 31.6562L58.8969 31.6563L58.8969 31.6563L58.8969 31.6564L58.8969 31.6564L58.8969 31.6565L58.8969 31.6565ZM57.8545 30.9901C57.8174 30.1618 57.6444 29.42 56.8908 28.9378C55.3589 27.9611 53.444 28.8389 53.2464 30.6316C53.2093 30.9777 53.234 31.3486 53.2834 31.6948C53.4811 32.9311 54.3459 33.7224 55.4825 33.7471C56.6314 33.7595 57.4715 33.0424 57.7186 31.8061C57.7771 31.6009 57.8048 31.3804 57.8322 31.1627L57.8322 31.1624V31.1624L57.8322 31.1623L57.8322 31.1623L57.8322 31.1622C57.8395 31.1045 57.8467 31.047 57.8545 30.9901Z" fill="#02B5B5"/>
</svg>
